<?xml version="1.0" encoding="utf-8"?>
<!-- Generator: Adobe Illustrator 26.1.0, SVG Export Plug-In . SVG Version: 6.00 Build 0)  -->
<svg version="1.1" id="레이어_1" xmlns="http://www.w3.org/2000/svg" xmlns:xlink="http://www.w3.org/1999/xlink" x="0px"
	 y="0px" viewBox="0 0 1618 413" style="enable-background:new 0 0 1618 413;" xml:space="preserve">
<style type="text/css">
	.st0{fill:none;stroke:#92F9E5;stroke-width:6;stroke-linecap:round;}
</style>
<path class="st0" d="M1380.2,94.3c-58.9,5.4-232.9,24.3-292,24.6c-28.8,0.1-121.5-5.8-51.3-78.6"/>
<path class="st0" d="M1052.1,401.3c-142.6-232.4,406.3-127.9,510.9-109.2c12.5,2.2,24.8,4.7,37.2,7.2c2.1,0.4,10.3,1.2,13.1,3
	c3,1.9-1.7,0.3-2.7,0.1c-15.8-3.4-31.7-5.6-47.7-8c-47.2-7.1-93.4-17.4-139.9-28c-80.2-18.2-366.5-102.6-55.9-147.5"/>
<path class="st0" d="M713.4,351.4c5.8-128.8,210.4-30.4,230.9-18.3c36.5,21.5,72.6,44.4,107.7,68.2"/>
<path class="st0" d="M372.2,338.3c10.5-10.1,22.1-18.9,34.2-26.9c52.1-34.1,115.1-53.1,177.6-48.6c41,3,76.8,4.5,108,33.5
	c16.4,15.3,18.8,33.2,21.4,55"/>
<path class="st0" d="M37.1,9.2C507.4,111.6,57.7,196.4,0.5,201.9c87.2,2.4,174.8-4.2,261.8,3.3c94.2,5.9,95.1,68.8,98.7,113.1"/>
<path class="st0" d="M209.6,8.8C167.4,5,125.3,1.6,82.8,3.6C67.4,4.3,52.4,7.2,37.1,9.2"/>
</svg>
