<svg width="291" height="213" viewBox="0 0 291 213" fill="none" xmlns="http://www.w3.org/2000/svg">
<path d="M287.973 209.739C286.154 200.644 280.229 191.793 273.89 185.341C257.59 168.753 237.778 154.52 217.359 143.488C181.744 124.249 140.457 115.621 101.321 106.743C80.9467 102.121 60.4722 97.7751 39.9799 93.7014C35.5888 92.8284 31.3103 91.9162 26.8389 91.9162C21.9131 91.9162 36.6905 91.9233 41.6163 91.9162C46.355 91.9093 103.523 93.4854 103.404 89.6847C103.244 84.5851 99.5352 78.8186 96.9573 74.7089C90.087 63.7562 80.5787 54.6557 70.5265 46.6417C54.3093 33.7127 36.1898 23.2944 17.4171 14.5578C9.36524 10.8106 4.38957 8.75939 -3.70772 6.07817C-6.85534 5.03591 -16.63 3.24896 -13.3279 3.54915C24.0048 6.94302 56.1403 8.19781 88.4268 27.4995C98.8005 33.7012 114.37 45.6604 120.427 52.9995" stroke="#92F9E5" stroke-width="6" stroke-linecap="round"/>
</svg>
